<svg width="34" height="34" viewBox="0 0 34 34" fill="none" xmlns="http://www.w3.org/2000/svg">
<g clip-path="url(#clip0_181_361)" filter="url(#filter0_d_181_361)">
<path fill-rule="evenodd" clip-rule="evenodd" d="M28.375 13C28.375 16.0168 27.1766 18.9101 25.0433 21.0433C22.9101 23.1766 20.0168 24.375 17 24.375C13.9832 24.375 11.0899 23.1766 8.95666 21.0433C6.82343 18.9101 5.625 16.0168 5.625 13C5.625 9.98316 6.82343 7.08989 8.95666 4.95666C11.0899 2.82343 13.9832 1.625 17 1.625C20.0168 1.625 22.9101 2.82343 25.0433 4.95666C27.1766 7.08989 28.375 9.98316 28.375 13ZM4 13C4 16.4478 5.36964 19.7544 7.80761 22.1924C10.2456 24.6304 13.5522 26 17 26C20.4478 26 23.7544 24.6304 26.1924 22.1924C28.6304 19.7544 30 16.4478 30 13C30 9.55219 28.6304 6.24558 26.1924 3.80761C23.7544 1.36964 20.4478 0 17 0C13.5522 0 10.2456 1.36964 7.80761 3.80761C5.36964 6.24558 4 9.55219 4 13ZM11.3125 12.1875C11.097 12.1875 10.8903 12.2731 10.738 12.4255C10.5856 12.5778 10.5 12.7845 10.5 13C10.5 13.2155 10.5856 13.4222 10.738 13.5745C10.8903 13.7269 11.097 13.8125 11.3125 13.8125H20.7261L17.2372 17.2997C17.1617 17.3753 17.1018 17.465 17.0609 17.5637C17.02 17.6624 16.999 17.7682 16.999 17.875C16.999 17.9818 17.02 18.0876 17.0609 18.1863C17.1018 18.285 17.1617 18.3747 17.2372 18.4503C17.3128 18.5258 17.4025 18.5857 17.5012 18.6266C17.5999 18.6675 17.7057 18.6885 17.8125 18.6885C17.9193 18.6885 18.0251 18.6675 18.1238 18.6266C18.2225 18.5857 18.3122 18.5258 18.3878 18.4503L23.2628 13.5753C23.3384 13.4998 23.3984 13.4101 23.4394 13.3114C23.4804 13.2127 23.5015 13.1069 23.5015 13C23.5015 12.8931 23.4804 12.7873 23.4394 12.6886C23.3984 12.5899 23.3384 12.5002 23.2628 12.4247L18.3878 7.54975C18.2352 7.39718 18.0283 7.31147 17.8125 7.31147C17.5967 7.31147 17.3898 7.39718 17.2372 7.54975C17.0847 7.70232 16.999 7.90924 16.999 8.125C16.999 8.34076 17.0847 8.54768 17.2372 8.70025L20.7261 12.1875H11.3125Z" fill="#110303"/>
</g>
<defs>
<filter id="filter0_d_181_361" x="0" y="0" width="34" height="34" filterUnits="userSpaceOnUse" color-interpolation-filters="sRGB">
<feFlood flood-opacity="0" result="BackgroundImageFix"/>
<feColorMatrix in="SourceAlpha" type="matrix" values="0 0 0 0 0 0 0 0 0 0 0 0 0 0 0 0 0 0 127 0" result="hardAlpha"/>
<feOffset dy="4"/>
<feGaussianBlur stdDeviation="2"/>
<feComposite in2="hardAlpha" operator="out"/>
<feColorMatrix type="matrix" values="0 0 0 0 0 0 0 0 0 0 0 0 0 0 0 0 0 0 0.25 0"/>
<feBlend mode="normal" in2="BackgroundImageFix" result="effect1_dropShadow_181_361"/>
<feBlend mode="normal" in="SourceGraphic" in2="effect1_dropShadow_181_361" result="shape"/>
</filter>
<clipPath id="clip0_181_361">
<rect width="26" height="26" fill="white" transform="matrix(-1 0 0 1 30 0)"/>
</clipPath>
</defs>
</svg>
