<svg width="69" height="69" viewBox="0 0 69 69" fill="none" xmlns="http://www.w3.org/2000/svg">
<g filter="url(#filter0_d_42_926)">
<path d="M49 40C49 41.0609 48.602 42.0783 47.8935 42.8284C47.185 43.5786 46.2242 44 45.2222 44H22.5556L15 52V20C15 18.9391 15.398 17.9217 16.1065 17.1716C16.815 16.4214 17.7758 16 18.7778 16H45.2222C46.2242 16 47.185 16.4214 47.8935 17.1716C48.602 17.9217 49 18.9391 49 20V40Z" stroke="#E87C40" stroke-width="5" stroke-linecap="round" stroke-linejoin="round"/>
<path d="M57 33C57 34.0609 56.602 35.0783 55.8935 35.8284C55.185 36.5786 54.2242 37 53.2222 37H30.5556L23 45V13C23 11.9391 23.398 10.9217 24.1065 10.1716C24.815 9.42143 25.7758 9 26.7778 9H53.2222C54.2242 9 55.185 9.42143 55.8935 10.1716C56.602 10.9217 57 11.9391 57 13V33Z" stroke="#110303" stroke-width="5" stroke-linecap="round" stroke-linejoin="round"/>
</g>
<defs>
<filter id="filter0_d_42_926" x="0" y="0" width="69" height="69" filterUnits="userSpaceOnUse" color-interpolation-filters="sRGB">
<feFlood flood-opacity="0" result="BackgroundImageFix"/>
<feColorMatrix in="SourceAlpha" type="matrix" values="0 0 0 0 0 0 0 0 0 0 0 0 0 0 0 0 0 0 127 0" result="hardAlpha"/>
<feOffset dy="4"/>
<feGaussianBlur stdDeviation="2"/>
<feComposite in2="hardAlpha" operator="out"/>
<feColorMatrix type="matrix" values="0 0 0 0 0 0 0 0 0 0 0 0 0 0 0 0 0 0 0.25 0"/>
<feBlend mode="normal" in2="BackgroundImageFix" result="effect1_dropShadow_42_926"/>
<feBlend mode="normal" in="SourceGraphic" in2="effect1_dropShadow_42_926" result="shape"/>
</filter>
</defs>
</svg>
