<?xml version="1.0" standalone="no"?>
<!DOCTYPE svg PUBLIC "-//W3C//DTD SVG 20010904//EN"
 "http://www.w3.org/TR/2001/REC-SVG-20010904/DTD/svg10.dtd">
<svg version="1.0" xmlns="http://www.w3.org/2000/svg"
 width="96.000000pt" height="96.000000pt" viewBox="0 0 96.000000 96.000000"
 preserveAspectRatio="xMidYMid meet">

<g transform="translate(0.000000,96.000000) scale(0.100000,-0.100000)"
fill="#000000" stroke="none">
<path d="M437 788 c-19 -29 -111 -185 -206 -346 -143 -242 -171 -295 -161
-307 19 -22 801 -22 820 0 10 12 -18 65 -161 307 -209 355 -236 398 -249 398
-6 0 -25 -24 -43 -52z m140 -136 l92 -157 -94 -3 c-52 -1 -138 -1 -190 0 l-94
3 92 157 c51 87 94 158 97 158 3 0 46 -71 97 -158z m83 -188 c0 -10 -174 -294
-180 -294 -6 0 -180 284 -180 294 0 3 81 6 180 6 99 0 180 -3 180 -6z m-297
-160 c48 -81 86 -148 84 -151 -2 -2 -83 -2 -180 -1 l-176 3 86 148 c48 81 90
147 93 147 3 0 45 -66 93 -146z m420 -1 l86 -148 -176 -3 c-97 -1 -178 -1
-180 2 -5 4 170 296 177 296 3 0 45 -66 93 -147z"/>
</g>
</svg>
